--------------------------------------------------------------------------------
                                                                                
           SSSSSSSSSSSSSSS       444444444                 AAA                  
         SS:::::::::::::::S     4::::::::4                A:::A                 
        S:::::SSSSSS::::::S    4:::::::::4               A:::::A                
        S:::::S     SSSSSSS   4::::44::::4              A:::::::A               
        S:::::S              4::::4 4::::4             A:::::::::A              
        S:::::S             4::::4  4::::4            A:::::A:::::A             
         S::::SSSS         4::::4   4::::4           A:::::A A:::::A            
          SS::::::SSSSS   4::::444444::::444        A:::::A   A:::::A           
            SSS::::::::SS 4::::::::::::::::4       A:::::A     A:::::A          
               SSSSSS::::S4444444444:::::444      A:::::AAAAAAAAA:::::A         
                    S:::::S         4::::4       A:::::::::::::::::::::A        
                    S:::::S         4::::4      A:::::AAAAAAAAAAAAA:::::A       
        SSSSSSS     S:::::S         4::::4     A:::::A             A:::::A      
        S::::::SSSSSS:::::S       44::::::44  A:::::A               A:::::A     
        S:::::::::::::::SS        4::::::::4 A:::::A                 A:::::A    
         SSSSSSSSSSSSSSS          4444444444AAAAAAA                   AAAAAAA   
                                                                                
                                                                                
---------------------------------------------------------------------------------

                      WWE.Superstars.2011.07.21.Webrip-S4A                       

---------------------------------------------------------------------------------

General
Complete name                    : WWE.Superstars.2011.07.21.Webrip-S4A.mp4
Format                           : MPEG-4
Format profile                   : Base Media
Codec ID                         : isom
File size                        : 466 MiB
Duration                         : 48mn 3s
Overall bit rate                 : 1 356 Kbps
Writing application              : Lavf52.91.0

Video
ID                               : 1
Format                           : MPEG-4 Visual
Format profile                   : Simple@L1
Format settings, BVOP            : No
Format settings, QPel            : No
Format settings, GMC             : No warppoints
Format settings, Matrix          : Default (H.263)
Codec ID                         : 20
Duration                         : 48mn 3s
Bit rate                         : 1 199 Kbps
Width                            : 640 pixels
Height                           : 360 pixels
Display aspect ratio             : 16:9
Frame rate mode                  : Constant
Frame rate                       : 29.970 fps
Color space                      : YUV
Chroma subsampling               : 4:2:0
Bit depth                        : 8 bits
Scan type                        : Progressive
Compression mode                 : Lossy
Bits/(Pixel*Frame)               : 0.174
Stream size                      : 412 MiB (88%)
Writing library                  : Lavc52.101.0

Audio
ID                               : 2
Format                           : AAC
Format/Info                      : Advanced Audio Codec
Format profile                   : LC
Codec ID                         : 40
Duration                         : 48mn 3s
Bit rate mode                    : Variable
Bit rate                         : 152 Kbps
Channel(s)                       : 2 channels
Channel positions                : Front: L R
Sampling rate                    : 44.1 KHz
Compression mode                 : Lossy
Stream size                      : 52.2 MiB (11%)

Screenshots:
 
http://leetleech.org/images/67141256888066703036.png
 
http://leetleech.org/images/79049806694240974986.png
 
http://leetleech.org/images/44755901442347561426.png

---------------------------------------------------------------------------------